HIERARCHY
ROOT Hips
{
	OFFSET 0.00000 0.00000 0.00000
	CHANNELS 6 Xposition Yposition Zposition Yrotation Zrotation Xrotation 
	JOINT Lumbar
	{
		OFFSET 0 0 0
		CHANNELS 3 Zrotation Xrotation Yrotation
		JOINT Neck
		{
			OFFSET 0.00 0.2701 0.00
			CHANNELS 3 Zrotation Xrotation Yrotation
			End Site
			{
				OFFSET 0.00 0.1379 0.00
			}
		}
		JOINT RightShoulder
		{
			OFFSET 0.0119 0.2289 0.1181
			CHANNELS 3 Zrotation Xrotation Yrotation
			JOINT RightElbow
			{
				OFFSET 0.00 -0.1475 0.00
				CHANNELS 2 Zrotation Yrotation
				JOINT RightWrist
				{
					OFFSET 0.00 -0.1605 0.00
					CHANNELS 2 Zrotation Xrotation
					End Site
					{
						OFFSET 0.0040 -0.1068 0.0006
					}
				}
			}
		}
		JOINT LeftShoulder
		{
			OFFSET 0.0119 0.2289 -0.1181
			CHANNELS 3 Zrotation Xrotation Yrotation
			JOINT LeftElbow
			{
				OFFSET 0.00 -0.1475 0.00
				CHANNELS 2 Zrotation Yrotation
				JOINT LeftWrist
				{
					OFFSET 0.00 -0.1605 0.00
					CHANNELS 2 Zrotation Xrotation
					End Site
					{
						OFFSET 0.0040 -0.1068 -0.0006
					}
				}
			}
		}
	}
	JOINT RightHip
	{
		OFFSET 0.0316 -0.0424 0.0458
		CHANNELS 3 Zrotation Xrotation Yrotation
		JOINT RightKnee
		{
			OFFSET 0.00 -0.2438 0.00
			CHANNELS 1 Zrotation
			JOINT RightAnkle
			{
				OFFSET 0.00 -0.2449 0.00
				CHANNELS 3 Zrotation Xrotation Yrotation
				End Site
				{
					OFFSET 0.1237 -0.0542 0.0051
				}
			}
		}
	}
	JOINT LeftHip
	{
		OFFSET 0.0316 -0.0424 -0.0458
		CHANNELS 3 Zrotation Xrotation Yrotation
		JOINT LeftKnee
		{
			OFFSET 0.00 -0.2438 0.00
			CHANNELS 1 Zrotation
			JOINT LeftAnkle
			{
				OFFSET 0.00 -0.2449 0.00
				CHANNELS 3 Zrotation Xrotation Yrotation
				End Site
				{
					OFFSET 0.1237 -0.0542 -0.0051
				}
			}
		}
	}
}
MOTION
Frames: 27
Frame Time: 0.02
0.37987 0.07444 -0.15878 76.55353 -22.7118 -9.96371 37.73157 0.3493 -0.87915 -11.12892 -12.53291 -0.83079 -23.8492 -11.67967 30.93039 118.61727 104.47393 17.98337 0.46785 -7.74036 10.0352 -37.02904 118.63572 -113.75371 20.86986 -1.76686 18.75389 -3.40338 -3.55146 -17.40501 -6.36975 -3.69233 -2.55349 26.02934 20.65703 -12.04136 -6.38995 -10.5472 -0.32427 0.51826
0.38587 0.07449 -0.15331 78.49005 -22.78489 -10.39334 36.7366 0.58215 -1.46706 -10.96432 -12.37965 -0.83079 -24.08286 -11.60137 31.05989 118.72831 103.42995 17.28356 0.42265 -7.41582 10.39186 -37.45282 118.72622 -113.64178 20.4794 -1.93453 18.63338 -2.04413 -4.31812 -17.2139 -6.4072 -3.84399 -2.63755 27.89517 20.77394 -11.70287 -8.30241 -10.62201 -0.21577 0.58
0.39134 0.07404 -0.14753 80.54148 -22.9186 -10.79155 35.68287 0.85171 -2.07489 -10.74391 -12.22901 -0.83079 -24.33082 -11.3508 31.12944 118.77728 102.26015 16.6241 0.35776 -7.02452 10.73926 -37.86369 118.84879 -113.92661 20.19491 -2.22333 18.73282 -0.7356 -4.9562 -17.17021 -6.45407 -4.02448 -2.73677 30.18789 20.61138 -11.07379 -10.85321 -10.62048 -0.05978 0.66524
0.39699 0.07386 -0.14193 82.54768 -23.03052 -11.18905 34.66716 1.10515 -2.66514 -10.55677 -12.07889 -0.83079 -24.57214 -11.18209 31.22412 118.85271 101.16878 15.951 0.30252 -6.68714 11.07413 -38.2674 118.95201 -113.99611 19.85225 -2.44181 18.74039 0.57 -5.65602 -17.06068 -6.4994 -4.19042 -2.82874 32.23825 20.5448 -10.55459 -13.03745 -10.65292 0.08594 0.74612
0.4029 0.07351 -0.13615 84.53081 -23.11212 -11.65306 33.59594 1.35808 -3.30047 -10.33835 -11.92019 -0.83079 -24.81939 -10.9955 31.32959 118.93525 99.98793 15.25252 0.24382 -6.25151 11.48695 -38.7301 119.07741 -114.19619 19.54143 -2.72065 18.70907 1.99061 -6.33861 -16.94843 -6.53392 -4.36287 -2.92257 34.49335 20.60545 -10.12064 -15.55363 -10.68887 0.18645 0.80179
0.40813 0.07339 -0.13067 86.58658 -23.27448 -11.96865 32.6309 1.61931 -3.84175 -10.17042 -11.78021 -0.83079 -25.05476 -10.80634 31.39839 118.98871 98.96521 14.62057 0.18932 -6.00222 11.73414 -39.06489 119.16407 -114.22853 19.1969 -2.90475 18.81432 3.15552 -7.02752 -16.87653 -6.59295 -4.52833 -3.01591 36.424 20.33846 -9.45054 -17.52505 -10.69961 0.38925 0.91377
0.41163 0.07401 -0.12606 88.8168 -23.63304 -11.89699 31.95409 1.9038 -4.13509 -10.16276 -11.69489 -0.83079 -25.26452 -10.65184 31.37138 118.97242 98.3888 14.1377 0.13267 -6.30838 11.50453 -39.05496 119.12819 -113.65893 18.69017 -2.78986 19.22346 3.65227 -7.76768 -16.87384 -6.717 -4.66893 -3.10523 37.34209 19.20752 -8.108 -17.85511 -10.65436 0.89038 1.1907
0.41443 0.07487 -0.12175 91.11436 -24.07307 -11.6742 31.39024 2.1935 -4.32865 -10.20616 -11.62791 -0.83079 -25.45919 -10.50115 31.31102 118.92981 97.97945 13.72488 0.08394 -6.80012 11.11116 -38.91538 119.05328 -112.91652 18.15423 -2.57747 19.76581 3.88844 -8.51797 -16.90738 -6.86541 -4.80119 -3.1933 37.91993 17.76247 -6.55327 -17.61119 -10.58733 1.48797 1.52083
0.41751 0.07562 -0.11732 93.37957 -24.48513 -11.51032 30.78871 2.47455 -4.55622 -10.22142 -11.5504 -0.83079 -25.65316 -10.34938 31.27138 118.90236 97.50727 13.29745 0.04395 -7.19071 10.80581 -38.83101 119.00088 -112.28244 17.66175 -2.41513 20.26118 4.22653 -9.2635 -16.92803 -7.00274 -4.93627 -3.2812 38.6626 16.47868 -5.15782 -17.61528 -10.53324 2.02297 1.8164
0.42075 0.07636 -0.11283 95.65848 -24.86359 -11.38584 30.12899 2.78339 -4.83352 -10.25612 -11.48216 -0.83079 -25.87971 -10.18884 31.20557 118.85947 96.97578 12.80114 -0.04763 -7.64919 10.44337 -38.7614 118.92944 -111.53609 17.04804 -2.23229 20.70973 4.63183 -10.00811 -16.93894 -7.14022 -5.07647 -3.37273 39.38138 15.10432 -3.49375 -17.69219 -10.46298 2.63755 2.15583
0.4235 0.07717 -0.10853 97.92054 -25.32736 -11.1448 29.61607 3.03514 -4.98198 -10.26252 -11.39898 -0.83079 -26.03452 -10.04966 31.18791 118.84298 96.60875 12.46128 -0.0311 -8.01214 10.16045 -38.63106 118.88801 -110.97751 16.67522 -2.06796 21.28109 4.83683 -10.75499 -16.9766 -7.28334 -5.2036 -3.45621 40.0582 13.851 -2.33396 -17.47752 -10.42305 3.11024 2.4172
0.42511 0.07814 -0.10466 100.14256 -26.03481 -10.61034 29.49976 3.12723 -4.80994 -10.18442 -11.26981 -0.83079 -25.99499 -9.97024 31.3045 118.90887 96.6593 12.56402 0.29513 -8.05807 10.1415 -38.35861 118.93784 -110.97902 17.00378 -1.9739 22.1886 4.54446 -11.53798 -17.08054 -7.43361 -5.29684 -3.5176 40.74584 12.98206 -2.69438 -16.55349 -10.4654 3.1532 2.4413
0.42625 0.07916 -0.10098 102.34032 -26.82 -9.96568 29.52468 3.16157 -4.51002 -10.07534 -11.12507 -0.83079 -25.88347 -9.91274 31.47209 119.00198 96.8697 12.81697 0.7278 -8.0031 10.20716 -38.03046 119.01896 -111.17442 17.57035 -1.90221 23.20878 4.06127 -12.31715 -17.20937 -7.58916 -5.37701 -3.57086 41.39272 12.25254 -3.55714 -15.36084 -10.54053 3.052 2.38623
0.42759 0.08014 -0.09723 104.53367 -27.55061 -9.377 29.47211 3.2227 -4.2607 -9.97659 -10.98749 -0.83079 -25.80504 -9.84498 31.62129 119.08093 97.00435 12.98208 1.10286 -7.99995 10.23159 -37.73221 119.08669 -111.27853 18.00773 -1.82269 24.15645 3.67094 -13.07802 -17.32489 -7.74383 -5.46298 -3.62787 42.02758 11.47767 -4.14142 -14.31732 -10.6057 3.02655 2.37336
0.42896 0.08119 -0.09342 106.795 -28.3644 -8.75745 29.47718 3.28198 -4.03752 -9.89494 -10.8499 -0.83079 -25.72536 -9.77855 31.74973 119.16644 97.15667 13.23002 1.51603 -7.97864 10.26311 -37.41109 119.15077 -111.38702 18.53082 -1.72968 25.19759 3.2455 -13.92531 -17.44929 -7.89281 -5.54941 -3.68465 42.77976 10.61416 -4.92919 -13.14032 -10.64988 2.96322 2.33726
0.43016 0.0821 -0.08978 108.90757 -29.02357 -8.17884 29.39735 3.33101 -3.73351 -9.77024 -10.70877 -0.83079 -25.63032 -9.71446 31.93314 119.24514 97.30949 13.34305 1.87644 -7.96804 10.30074 -37.12478 119.2289 -111.5387 18.9349 -1.67171 26.07064 2.85137 -14.58962 -17.56176 -8.05474 -5.63172 -3.73995 43.28235 9.97432 -5.41626 -12.18451 -10.74501 2.94086 2.32858
0.43106 0.08257 -0.08655 110.61808 -29.22518 -7.73417 29.02175 3.36848 -3.21524 -9.5292 -10.55835 -0.83079 -25.51991 -9.6518 32.26293 119.29825 97.414 13.02221 2.05166 -8.01771 10.347 -36.959 119.35138 -111.72392 18.92896 -1.70139 26.43684 2.5909 -14.76702 -17.62498 -8.24935 -5.70704 -3.7936 43.10522 9.90492 -4.94456 -11.91106 -10.98056 3.08754 2.42742
0.4318 0.08288 -0.08349 112.17817 -29.2701 -7.33668 28.56043 3.3971 -2.62487 -9.24667 -10.40544 -0.83079 -25.39503 -9.59042 32.64486 119.3438 97.51669 12.5649 2.17187 -8.07995 10.39512 -36.82808 119.48491 -111.95122 18.79901 -1.76627 26.63184 2.36979 -14.75758 -17.67712 -8.45684 -5.77842 -3.84596 42.6798 10.06001 -4.1565 -11.87143 -11.26499 3.27628 2.5541
0.43259 0.08326 -0.08039 113.80577 -29.39414 -6.92197 28.15513 3.42805 -2.0825 -8.98606 -10.25572 -0.83079 -25.27039 -9.52851 32.99884 119.39289 97.62373 12.18554 2.32694 -8.13111 10.43487 -36.67574 119.60459 -112.18858 18.74177 -1.81849 26.91479 2.13161 -14.82166 -17.74074 -8.65973 -5.85091 -3.8987 42.37033 10.1223 -3.51616 -11.72343 -11.52198 3.43149 2.65944
0.43347 0.08365 -0.07716 115.43889 -29.48817 -6.48431 27.68212 3.4642 -1.47068 -8.71109 -10.09671 -0.83079 -25.16917 -9.46809 33.37373 119.44213 97.71323 11.74325 2.44701 -8.20005 10.50866 -36.54799 119.76158 -112.32034 18.62578 -1.85919 27.16004 1.88299 -14.93183 -17.77773 -8.85832 -5.92601 -3.95215 42.04712 10.14966 -2.87055 -11.57366 -11.80189 3.64181 2.79826
0.43413 0.08398 -0.07422 117.02168 -29.60566 -6.10859 27.32875 3.48807 -0.98886 -8.45704 -9.95674 -0.83079 -25.01769 -9.40341 33.71531 119.48933 97.84719 11.39888 2.62188 -8.23807 10.51161 -36.37418 119.84439 -112.66579 18.59708 -1.92966 27.44027 1.66819 -14.90404 -17.8676 -9.06787 -5.99468 -4.00374 41.69285 10.30211 -2.16181 -11.48785 -12.0456 3.7502 2.87559
0.43428 0.08422 -0.07201 118.53019 -29.83252 -5.88075 27.31908 3.48113 -0.87726 -8.26758 -9.86916 -0.83079 -24.72292 -9.33656 33.96039 119.52906 98.00659 11.34429 2.99294 -8.17254 10.31243 -36.09364 119.70786 -113.70805 18.85828 -2.09381 27.87047 1.53647 -14.52058 -18.10316 -9.31288 -6.04838 -4.05217 41.32499 10.73804 -1.28961 -11.51292 -12.17399 3.55823 2.77117
0.43422 0.0844 -0.07009 119.98729 -30.08677 -5.71648 27.43353 3.46222 -0.90047 -8.1017 -9.80096 -0.83079 -24.38027 -9.26333 34.1655 119.56764 98.2232 11.39286 3.41507 -8.07918 10.0427 -35.75736 119.4982 -114.9409 19.2054 -2.28315 28.33913 1.43836 -14.00858 -18.39284 -9.56688 -6.09545 -4.0985 40.93248 11.29258 -0.37482 -11.59675 -12.2645 3.26427 2.6051
0.43423 0.08459 -0.06806 121.45082 -30.324 -5.53114 27.49537 3.44849 -0.86727 -7.92693 -9.72458 -0.83079 -24.06472 -9.18655 34.3869 119.60896 98.48331 11.40511 3.79212 -8.00837 9.80873 -35.4318 119.32983 -116.00908 19.50183 -2.44727 28.78198 1.32657 -13.5688 -18.65953 -9.8113 -6.14441 -4.14476 40.54414 11.79694 0.47945 -11.66139 -12.37474 3.02369 2.47125
0.43436 0.08485 -0.06595 122.98405 -30.57526 -5.31387 27.53805 3.43559 -0.81244 -7.74163 -9.64578 -0.83079 -23.72467 -9.13745 34.62979 119.64037 98.47072 11.37614 4.25786 -7.89436 9.55895 -35.18171 119.12852 -117.40927 19.84964 -2.66953 29.25385 1.21012 -13.06409 -18.91877 -10.07944 -6.19796 -4.19534 40.17715 12.29415 1.51862 -11.70452 -12.47709 2.75593 2.32126
0.43419 0.08495 -0.06407 124.35751 -30.80564 -5.17818 27.65148 3.41813 -0.83379 -7.58611 -9.57623 -0.83079 -23.42626 -9.02868 34.80304 119.69262 99.01377 11.44921 4.55397 -7.8658 9.32571 -34.74494 118.97745 -118.16153 20.10441 -2.77777 29.67698 1.10984 -12.66667 -19.20688 -10.30004 -6.24042 -4.23639 39.76262 12.83065 2.17823 -11.8006 -12.58499 2.51864 2.18905
0.43329 0.08465 -0.06277 125.33942 -30.97395 -5.24743 27.92815 3.39204 -1.04913 -7.49327 -9.53118 -0.83079 -23.24006 -8.76238 34.91625 119.7995 101.29771 11.86537 4.34851 -8.06222 9.15412 -33.93937 118.98973 -117.08554 20.15049 -2.55115 29.95356 1.05506 -12.59576 -19.55826 -10.38807 -6.25407 -4.252 39.22883 13.45236 1.78293 -12.05277 -12.72769 2.40272 2.12843
